<mxfile host="app.diagrams.net" modified="2024-05-22T01:18:40.960Z" agent="Mozilla/5.0 (Windows NT 10.0; Win64; x64) AppleWebKit/537.36 (KHTML, like Gecko) Chrome/125.0.0.0 Safari/537.36" etag="WTH6-hMiy43mW5cbaCyF" version="24.4.4" type="device">
  <diagram name="Página-1" id="GyshaNeHMyCVILGlN6bo">
    <mxGraphModel dx="1430" dy="757" grid="1" gridSize="10" guides="1" tooltips="1" connect="1" arrows="1" fold="1" page="1" pageScale="1" pageWidth="1169" pageHeight="827" math="0" shadow="0">
      <root>
        <mxCell id="0" />
        <mxCell id="1" parent="0" />
        <mxCell id="zhJgr4KQXmMTlXa_ivyi-123" value="" style="rounded=0;whiteSpace=wrap;html=1;" vertex="1" parent="1">
          <mxGeometry x="130" y="160" width="1050" height="340" as="geometry" />
        </mxCell>
        <mxCell id="usk_4YH8lnq-4AR2N6JO-52" value="" style="endArrow=classic;html=1;rounded=0;entryX=0.5;entryY=0;entryDx=0;entryDy=0;exitX=0.5;exitY=1;exitDx=0;exitDy=0;" parent="1" edge="1" target="zhJgr4KQXmMTlXa_ivyi-3" source="zhJgr4KQXmMTlXa_ivyi-72">
          <mxGeometry width="50" height="50" relative="1" as="geometry">
            <mxPoint x="170" y="240" as="sourcePoint" />
            <mxPoint x="200" y="240" as="targetPoint" />
          </mxGeometry>
        </mxCell>
        <mxCell id="usk_4YH8lnq-4AR2N6JO-70" value="" style="endArrow=classic;html=1;rounded=0;" parent="1" edge="1">
          <mxGeometry width="50" height="50" relative="1" as="geometry">
            <mxPoint x="960" y="240" as="sourcePoint" />
            <mxPoint x="1000" y="220" as="targetPoint" />
          </mxGeometry>
        </mxCell>
        <mxCell id="usk_4YH8lnq-4AR2N6JO-71" value="x4" style="text;html=1;align=center;verticalAlign=middle;resizable=0;points=[];autosize=1;strokeColor=none;fillColor=none;" parent="1" vertex="1">
          <mxGeometry x="995" y="203" width="40" height="30" as="geometry" />
        </mxCell>
        <mxCell id="usk_4YH8lnq-4AR2N6JO-72" value="" style="endArrow=classic;html=1;rounded=0;" parent="1" edge="1">
          <mxGeometry width="50" height="50" relative="1" as="geometry">
            <mxPoint x="960" y="240" as="sourcePoint" />
            <mxPoint x="1000" y="240" as="targetPoint" />
          </mxGeometry>
        </mxCell>
        <mxCell id="usk_4YH8lnq-4AR2N6JO-73" value="x2" style="text;html=1;align=center;verticalAlign=middle;resizable=0;points=[];autosize=1;strokeColor=none;fillColor=none;" parent="1" vertex="1">
          <mxGeometry x="995" y="225" width="40" height="30" as="geometry" />
        </mxCell>
        <mxCell id="usk_4YH8lnq-4AR2N6JO-74" value="" style="endArrow=classic;html=1;rounded=0;" parent="1" edge="1">
          <mxGeometry width="50" height="50" relative="1" as="geometry">
            <mxPoint x="960" y="240" as="sourcePoint" />
            <mxPoint x="1000" y="260" as="targetPoint" />
          </mxGeometry>
        </mxCell>
        <mxCell id="usk_4YH8lnq-4AR2N6JO-75" value="x1" style="text;html=1;align=center;verticalAlign=middle;resizable=0;points=[];autosize=1;strokeColor=none;fillColor=none;" parent="1" vertex="1">
          <mxGeometry x="995" y="248" width="40" height="30" as="geometry" />
        </mxCell>
        <mxCell id="usk_4YH8lnq-4AR2N6JO-89" value="x2" style="text;html=1;align=center;verticalAlign=middle;resizable=0;points=[];autosize=1;strokeColor=none;fillColor=none;" parent="1" vertex="1">
          <mxGeometry x="572" y="395.39" width="40" height="30" as="geometry" />
        </mxCell>
        <mxCell id="usk_4YH8lnq-4AR2N6JO-100" value="x4" style="text;html=1;align=center;verticalAlign=middle;resizable=0;points=[];autosize=1;strokeColor=none;fillColor=none;" parent="1" vertex="1">
          <mxGeometry x="739.5" y="395.11" width="40" height="30" as="geometry" />
        </mxCell>
        <mxCell id="usk_4YH8lnq-4AR2N6JO-110" value="x1" style="text;html=1;align=center;verticalAlign=middle;resizable=0;points=[];autosize=1;strokeColor=none;fillColor=none;" parent="1" vertex="1">
          <mxGeometry x="730" y="313" width="40" height="30" as="geometry" />
        </mxCell>
        <mxCell id="usk_4YH8lnq-4AR2N6JO-111" value="" style="edgeStyle=orthogonalEdgeStyle;rounded=0;orthogonalLoop=1;jettySize=auto;html=1;" parent="1" edge="1">
          <mxGeometry relative="1" as="geometry">
            <mxPoint x="761" y="327" as="sourcePoint" />
            <mxPoint x="960" y="327" as="targetPoint" />
          </mxGeometry>
        </mxCell>
        <mxCell id="usk_4YH8lnq-4AR2N6JO-112" value="(Conexión directa)" style="edgeLabel;html=1;align=center;verticalAlign=middle;resizable=0;points=[];" parent="usk_4YH8lnq-4AR2N6JO-111" vertex="1" connectable="0">
          <mxGeometry x="-0.066" y="1" relative="1" as="geometry">
            <mxPoint x="12" y="12" as="offset" />
          </mxGeometry>
        </mxCell>
        <mxCell id="zhJgr4KQXmMTlXa_ivyi-3" value="Conv2d" style="rounded=0;whiteSpace=wrap;html=1;rotation=-90;fillColor=#e1d5e7;strokeColor=#9673a6;" vertex="1" parent="1">
          <mxGeometry x="170" y="226.25" width="92.75" height="27.5" as="geometry" />
        </mxCell>
        <mxCell id="zhJgr4KQXmMTlXa_ivyi-4" value="" style="endArrow=classic;html=1;rounded=0;exitX=0.5;exitY=1;exitDx=0;exitDy=0;entryX=0;entryY=0.5;entryDx=0;entryDy=0;" edge="1" parent="1" source="zhJgr4KQXmMTlXa_ivyi-3">
          <mxGeometry width="50" height="50" relative="1" as="geometry">
            <mxPoint x="240" y="240" as="sourcePoint" />
            <mxPoint x="250" y="240" as="targetPoint" />
          </mxGeometry>
        </mxCell>
        <mxCell id="zhJgr4KQXmMTlXa_ivyi-5" value="relu" style="rounded=0;whiteSpace=wrap;html=1;rotation=-90;fillColor=#dae8fc;strokeColor=#6c8ebf;" vertex="1" parent="1">
          <mxGeometry x="218" y="226.25" width="92.75" height="27.5" as="geometry" />
        </mxCell>
        <mxCell id="zhJgr4KQXmMTlXa_ivyi-6" value="" style="endArrow=classic;html=1;rounded=0;exitX=0.5;exitY=1;exitDx=0;exitDy=0;entryX=0;entryY=0.5;entryDx=0;entryDy=0;" edge="1" parent="1">
          <mxGeometry width="50" height="50" relative="1" as="geometry">
            <mxPoint x="278" y="239.92" as="sourcePoint" />
            <mxPoint x="298" y="239.92" as="targetPoint" />
          </mxGeometry>
        </mxCell>
        <mxCell id="zhJgr4KQXmMTlXa_ivyi-7" value="BatchNorm" style="rounded=0;whiteSpace=wrap;html=1;rotation=-90;fillColor=#fff2cc;strokeColor=#d6b656;" vertex="1" parent="1">
          <mxGeometry x="265.75" y="227.5" width="92.75" height="27.5" as="geometry" />
        </mxCell>
        <mxCell id="zhJgr4KQXmMTlXa_ivyi-8" value="" style="rounded=0;whiteSpace=wrap;html=1;rotation=-90;fillColor=#e1d5e7;strokeColor=#9673a6;" vertex="1" parent="1">
          <mxGeometry x="300" y="233.75" width="92.75" height="15" as="geometry" />
        </mxCell>
        <mxCell id="zhJgr4KQXmMTlXa_ivyi-9" value="" style="endArrow=classic;html=1;rounded=0;exitX=0.5;exitY=1;exitDx=0;exitDy=0;entryX=0.5;entryY=0;entryDx=0;entryDy=0;" edge="1" parent="1" source="zhJgr4KQXmMTlXa_ivyi-8" target="zhJgr4KQXmMTlXa_ivyi-13">
          <mxGeometry width="50" height="50" relative="1" as="geometry">
            <mxPoint x="353.8749999999999" y="241.25" as="sourcePoint" />
            <mxPoint x="380.375" y="243.07" as="targetPoint" />
          </mxGeometry>
        </mxCell>
        <mxCell id="zhJgr4KQXmMTlXa_ivyi-13" value="" style="rounded=0;whiteSpace=wrap;html=1;rotation=-90;fillColor=#dae8fc;strokeColor=#6c8ebf;" vertex="1" parent="1">
          <mxGeometry x="326" y="234" width="92.75" height="15" as="geometry" />
        </mxCell>
        <mxCell id="zhJgr4KQXmMTlXa_ivyi-15" value="" style="rounded=0;whiteSpace=wrap;html=1;rotation=-90;fillColor=#fff2cc;strokeColor=#d6b656;" vertex="1" parent="1">
          <mxGeometry x="353.5" y="234" width="92.75" height="15" as="geometry" />
        </mxCell>
        <mxCell id="zhJgr4KQXmMTlXa_ivyi-16" value="" style="endArrow=classic;html=1;rounded=0;exitX=0.5;exitY=1;exitDx=0;exitDy=0;entryX=0.5;entryY=0;entryDx=0;entryDy=0;" edge="1" parent="1" source="zhJgr4KQXmMTlXa_ivyi-13">
          <mxGeometry width="50" height="50" relative="1" as="geometry">
            <mxPoint x="381" y="241" as="sourcePoint" />
            <mxPoint x="392" y="242" as="targetPoint" />
          </mxGeometry>
        </mxCell>
        <mxCell id="zhJgr4KQXmMTlXa_ivyi-17" value="" style="endArrow=classic;html=1;rounded=0;exitX=0.5;exitY=1;exitDx=0;exitDy=0;entryX=0.5;entryY=0;entryDx=0;entryDy=0;" edge="1" parent="1" source="zhJgr4KQXmMTlXa_ivyi-7" target="zhJgr4KQXmMTlXa_ivyi-8">
          <mxGeometry width="50" height="50" relative="1" as="geometry">
            <mxPoint x="334.8750000000001" y="241.43" as="sourcePoint" />
            <mxPoint x="369" y="241.56" as="targetPoint" />
          </mxGeometry>
        </mxCell>
        <mxCell id="zhJgr4KQXmMTlXa_ivyi-25" value="" style="endArrow=none;html=1;rounded=0;exitX=1;exitY=0;exitDx=0;exitDy=0;entryX=1;entryY=1;entryDx=0;entryDy=0;" edge="1" parent="1" source="zhJgr4KQXmMTlXa_ivyi-8" target="zhJgr4KQXmMTlXa_ivyi-15">
          <mxGeometry width="50" height="50" relative="1" as="geometry">
            <mxPoint x="360" y="220" as="sourcePoint" />
            <mxPoint x="410" y="170" as="targetPoint" />
          </mxGeometry>
        </mxCell>
        <mxCell id="zhJgr4KQXmMTlXa_ivyi-26" value="" style="endArrow=none;html=1;rounded=0;exitX=0;exitY=0;exitDx=0;exitDy=0;entryX=0;entryY=1;entryDx=0;entryDy=0;" edge="1" parent="1" source="zhJgr4KQXmMTlXa_ivyi-8" target="zhJgr4KQXmMTlXa_ivyi-15">
          <mxGeometry width="50" height="50" relative="1" as="geometry">
            <mxPoint x="337" y="290" as="sourcePoint" />
            <mxPoint x="410" y="290" as="targetPoint" />
          </mxGeometry>
        </mxCell>
        <mxCell id="zhJgr4KQXmMTlXa_ivyi-27" value="" style="rounded=0;whiteSpace=wrap;html=1;rotation=-90;fillColor=#e1d5e7;strokeColor=#9673a6;" vertex="1" parent="1">
          <mxGeometry x="381.75" y="234.64" width="92.75" height="15" as="geometry" />
        </mxCell>
        <mxCell id="zhJgr4KQXmMTlXa_ivyi-28" value="" style="endArrow=classic;html=1;rounded=0;exitX=0.5;exitY=1;exitDx=0;exitDy=0;entryX=0.5;entryY=0;entryDx=0;entryDy=0;" edge="1" parent="1" source="zhJgr4KQXmMTlXa_ivyi-27" target="zhJgr4KQXmMTlXa_ivyi-29">
          <mxGeometry width="50" height="50" relative="1" as="geometry">
            <mxPoint x="435.6249999999999" y="242.14" as="sourcePoint" />
            <mxPoint x="462.125" y="243.95999999999998" as="targetPoint" />
          </mxGeometry>
        </mxCell>
        <mxCell id="zhJgr4KQXmMTlXa_ivyi-29" value="" style="rounded=0;whiteSpace=wrap;html=1;rotation=-90;fillColor=#dae8fc;strokeColor=#6c8ebf;" vertex="1" parent="1">
          <mxGeometry x="407.75" y="234.89" width="92.75" height="15" as="geometry" />
        </mxCell>
        <mxCell id="zhJgr4KQXmMTlXa_ivyi-30" value="" style="rounded=0;whiteSpace=wrap;html=1;rotation=-90;fillColor=#fff2cc;strokeColor=#d6b656;" vertex="1" parent="1">
          <mxGeometry x="435.25" y="234.89" width="92.75" height="15" as="geometry" />
        </mxCell>
        <mxCell id="zhJgr4KQXmMTlXa_ivyi-31" value="" style="endArrow=classic;html=1;rounded=0;exitX=0.5;exitY=1;exitDx=0;exitDy=0;entryX=0.5;entryY=0;entryDx=0;entryDy=0;" edge="1" parent="1" source="zhJgr4KQXmMTlXa_ivyi-29">
          <mxGeometry width="50" height="50" relative="1" as="geometry">
            <mxPoint x="462.75" y="241.89" as="sourcePoint" />
            <mxPoint x="473.75" y="242.89" as="targetPoint" />
          </mxGeometry>
        </mxCell>
        <mxCell id="zhJgr4KQXmMTlXa_ivyi-32" value="" style="endArrow=classic;html=1;rounded=0;exitX=0.5;exitY=1;exitDx=0;exitDy=0;entryX=0.5;entryY=0;entryDx=0;entryDy=0;" edge="1" parent="1" target="zhJgr4KQXmMTlXa_ivyi-27">
          <mxGeometry width="50" height="50" relative="1" as="geometry">
            <mxPoint x="407.75" y="241.89" as="sourcePoint" />
            <mxPoint x="450.75" y="242.45" as="targetPoint" />
          </mxGeometry>
        </mxCell>
        <mxCell id="zhJgr4KQXmMTlXa_ivyi-33" value="" style="endArrow=none;html=1;rounded=0;exitX=1;exitY=0;exitDx=0;exitDy=0;entryX=1;entryY=1;entryDx=0;entryDy=0;" edge="1" parent="1" source="zhJgr4KQXmMTlXa_ivyi-27" target="zhJgr4KQXmMTlXa_ivyi-30">
          <mxGeometry width="50" height="50" relative="1" as="geometry">
            <mxPoint x="441.75" y="220.89" as="sourcePoint" />
            <mxPoint x="491.75" y="170.89" as="targetPoint" />
          </mxGeometry>
        </mxCell>
        <mxCell id="zhJgr4KQXmMTlXa_ivyi-34" value="" style="endArrow=none;html=1;rounded=0;exitX=0;exitY=0;exitDx=0;exitDy=0;entryX=0;entryY=1;entryDx=0;entryDy=0;" edge="1" parent="1" source="zhJgr4KQXmMTlXa_ivyi-27" target="zhJgr4KQXmMTlXa_ivyi-30">
          <mxGeometry width="50" height="50" relative="1" as="geometry">
            <mxPoint x="418.75" y="290.89" as="sourcePoint" />
            <mxPoint x="491.75" y="290.89" as="targetPoint" />
          </mxGeometry>
        </mxCell>
        <mxCell id="zhJgr4KQXmMTlXa_ivyi-35" value="" style="rounded=0;whiteSpace=wrap;html=1;rotation=-90;fillColor=#e1d5e7;strokeColor=#9673a6;" vertex="1" parent="1">
          <mxGeometry x="463" y="235.29999999999998" width="92.75" height="15" as="geometry" />
        </mxCell>
        <mxCell id="zhJgr4KQXmMTlXa_ivyi-36" value="" style="endArrow=classic;html=1;rounded=0;exitX=0.5;exitY=1;exitDx=0;exitDy=0;entryX=0.5;entryY=0;entryDx=0;entryDy=0;" edge="1" parent="1" source="zhJgr4KQXmMTlXa_ivyi-35" target="zhJgr4KQXmMTlXa_ivyi-37">
          <mxGeometry width="50" height="50" relative="1" as="geometry">
            <mxPoint x="516.8749999999999" y="242.79999999999998" as="sourcePoint" />
            <mxPoint x="543.375" y="244.61999999999998" as="targetPoint" />
          </mxGeometry>
        </mxCell>
        <mxCell id="zhJgr4KQXmMTlXa_ivyi-37" value="" style="rounded=0;whiteSpace=wrap;html=1;rotation=-90;fillColor=#dae8fc;strokeColor=#6c8ebf;" vertex="1" parent="1">
          <mxGeometry x="489" y="235.54999999999998" width="92.75" height="15" as="geometry" />
        </mxCell>
        <mxCell id="zhJgr4KQXmMTlXa_ivyi-38" value="" style="rounded=0;whiteSpace=wrap;html=1;rotation=-90;fillColor=#fff2cc;strokeColor=#d6b656;" vertex="1" parent="1">
          <mxGeometry x="516.5" y="235.54999999999998" width="92.75" height="15" as="geometry" />
        </mxCell>
        <mxCell id="zhJgr4KQXmMTlXa_ivyi-39" value="" style="endArrow=classic;html=1;rounded=0;exitX=0.5;exitY=1;exitDx=0;exitDy=0;entryX=0.5;entryY=0;entryDx=0;entryDy=0;" edge="1" parent="1" source="zhJgr4KQXmMTlXa_ivyi-37">
          <mxGeometry width="50" height="50" relative="1" as="geometry">
            <mxPoint x="544" y="242.54999999999998" as="sourcePoint" />
            <mxPoint x="555" y="243.54999999999998" as="targetPoint" />
          </mxGeometry>
        </mxCell>
        <mxCell id="zhJgr4KQXmMTlXa_ivyi-40" value="" style="endArrow=classic;html=1;rounded=0;exitX=0.5;exitY=1;exitDx=0;exitDy=0;entryX=0.5;entryY=0;entryDx=0;entryDy=0;" edge="1" parent="1" target="zhJgr4KQXmMTlXa_ivyi-35">
          <mxGeometry width="50" height="50" relative="1" as="geometry">
            <mxPoint x="489" y="242.54999999999998" as="sourcePoint" />
            <mxPoint x="532" y="243.10999999999999" as="targetPoint" />
          </mxGeometry>
        </mxCell>
        <mxCell id="zhJgr4KQXmMTlXa_ivyi-41" value="" style="endArrow=none;html=1;rounded=0;exitX=1;exitY=0;exitDx=0;exitDy=0;entryX=1;entryY=1;entryDx=0;entryDy=0;" edge="1" parent="1" source="zhJgr4KQXmMTlXa_ivyi-35" target="zhJgr4KQXmMTlXa_ivyi-38">
          <mxGeometry width="50" height="50" relative="1" as="geometry">
            <mxPoint x="523" y="221.54999999999998" as="sourcePoint" />
            <mxPoint x="573" y="171.54999999999998" as="targetPoint" />
          </mxGeometry>
        </mxCell>
        <mxCell id="zhJgr4KQXmMTlXa_ivyi-42" value="" style="endArrow=none;html=1;rounded=0;exitX=0;exitY=0;exitDx=0;exitDy=0;entryX=0;entryY=1;entryDx=0;entryDy=0;" edge="1" parent="1" source="zhJgr4KQXmMTlXa_ivyi-35" target="zhJgr4KQXmMTlXa_ivyi-38">
          <mxGeometry width="50" height="50" relative="1" as="geometry">
            <mxPoint x="500" y="291.55" as="sourcePoint" />
            <mxPoint x="573" y="291.55" as="targetPoint" />
          </mxGeometry>
        </mxCell>
        <mxCell id="zhJgr4KQXmMTlXa_ivyi-43" value="Conv2dT" style="rounded=0;whiteSpace=wrap;html=1;rotation=-90;fillColor=#d0cee2;strokeColor=#56517e;" vertex="1" parent="1">
          <mxGeometry x="556" y="229.31" width="92.75" height="27.5" as="geometry" />
        </mxCell>
        <mxCell id="zhJgr4KQXmMTlXa_ivyi-44" value="" style="endArrow=classic;html=1;rounded=0;exitX=0.5;exitY=1;exitDx=0;exitDy=0;entryX=0;entryY=0.5;entryDx=0;entryDy=0;" edge="1" parent="1" source="zhJgr4KQXmMTlXa_ivyi-43">
          <mxGeometry width="50" height="50" relative="1" as="geometry">
            <mxPoint x="626" y="243.06" as="sourcePoint" />
            <mxPoint x="636" y="243.06" as="targetPoint" />
          </mxGeometry>
        </mxCell>
        <mxCell id="zhJgr4KQXmMTlXa_ivyi-45" value="relu" style="rounded=0;whiteSpace=wrap;html=1;rotation=-90;fillColor=#dae8fc;strokeColor=#6c8ebf;" vertex="1" parent="1">
          <mxGeometry x="604" y="229.31" width="92.75" height="27.5" as="geometry" />
        </mxCell>
        <mxCell id="zhJgr4KQXmMTlXa_ivyi-46" value="" style="endArrow=classic;html=1;rounded=0;exitX=0.5;exitY=1;exitDx=0;exitDy=0;entryX=0;entryY=0.5;entryDx=0;entryDy=0;" edge="1" parent="1">
          <mxGeometry width="50" height="50" relative="1" as="geometry">
            <mxPoint x="664" y="242.98" as="sourcePoint" />
            <mxPoint x="684" y="242.98" as="targetPoint" />
          </mxGeometry>
        </mxCell>
        <mxCell id="zhJgr4KQXmMTlXa_ivyi-47" value="BatchNorm" style="rounded=0;whiteSpace=wrap;html=1;rotation=-90;fillColor=#fff2cc;strokeColor=#d6b656;" vertex="1" parent="1">
          <mxGeometry x="651.75" y="230.56" width="92.75" height="27.5" as="geometry" />
        </mxCell>
        <mxCell id="zhJgr4KQXmMTlXa_ivyi-48" value="" style="rounded=0;whiteSpace=wrap;html=1;rotation=-90;fillColor=#d0cee2;strokeColor=#56517e;" vertex="1" parent="1">
          <mxGeometry x="686" y="236.81" width="92.75" height="15" as="geometry" />
        </mxCell>
        <mxCell id="zhJgr4KQXmMTlXa_ivyi-49" value="" style="endArrow=classic;html=1;rounded=0;exitX=0.5;exitY=1;exitDx=0;exitDy=0;entryX=0.5;entryY=0;entryDx=0;entryDy=0;" edge="1" parent="1" source="zhJgr4KQXmMTlXa_ivyi-48" target="zhJgr4KQXmMTlXa_ivyi-50">
          <mxGeometry width="50" height="50" relative="1" as="geometry">
            <mxPoint x="739.8749999999999" y="244.31" as="sourcePoint" />
            <mxPoint x="766.375" y="246.13" as="targetPoint" />
          </mxGeometry>
        </mxCell>
        <mxCell id="zhJgr4KQXmMTlXa_ivyi-50" value="" style="rounded=0;whiteSpace=wrap;html=1;rotation=-90;fillColor=#dae8fc;strokeColor=#6c8ebf;" vertex="1" parent="1">
          <mxGeometry x="712" y="237.06" width="92.75" height="15" as="geometry" />
        </mxCell>
        <mxCell id="zhJgr4KQXmMTlXa_ivyi-51" value="" style="rounded=0;whiteSpace=wrap;html=1;rotation=-90;fillColor=#fff2cc;strokeColor=#d6b656;" vertex="1" parent="1">
          <mxGeometry x="739.5" y="237.06" width="92.75" height="15" as="geometry" />
        </mxCell>
        <mxCell id="zhJgr4KQXmMTlXa_ivyi-52" value="" style="endArrow=classic;html=1;rounded=0;exitX=0.5;exitY=1;exitDx=0;exitDy=0;entryX=0.5;entryY=0;entryDx=0;entryDy=0;" edge="1" parent="1" source="zhJgr4KQXmMTlXa_ivyi-50">
          <mxGeometry width="50" height="50" relative="1" as="geometry">
            <mxPoint x="767" y="244.06" as="sourcePoint" />
            <mxPoint x="778" y="245.06" as="targetPoint" />
          </mxGeometry>
        </mxCell>
        <mxCell id="zhJgr4KQXmMTlXa_ivyi-53" value="" style="endArrow=classic;html=1;rounded=0;exitX=0.5;exitY=1;exitDx=0;exitDy=0;entryX=0.5;entryY=0;entryDx=0;entryDy=0;" edge="1" parent="1" source="zhJgr4KQXmMTlXa_ivyi-47" target="zhJgr4KQXmMTlXa_ivyi-48">
          <mxGeometry width="50" height="50" relative="1" as="geometry">
            <mxPoint x="720.8750000000001" y="244.49" as="sourcePoint" />
            <mxPoint x="755" y="244.62" as="targetPoint" />
          </mxGeometry>
        </mxCell>
        <mxCell id="zhJgr4KQXmMTlXa_ivyi-54" value="" style="endArrow=none;html=1;rounded=0;exitX=1;exitY=0;exitDx=0;exitDy=0;entryX=1;entryY=1;entryDx=0;entryDy=0;" edge="1" parent="1" source="zhJgr4KQXmMTlXa_ivyi-48" target="zhJgr4KQXmMTlXa_ivyi-51">
          <mxGeometry width="50" height="50" relative="1" as="geometry">
            <mxPoint x="746" y="223.06" as="sourcePoint" />
            <mxPoint x="796" y="173.06" as="targetPoint" />
          </mxGeometry>
        </mxCell>
        <mxCell id="zhJgr4KQXmMTlXa_ivyi-55" value="" style="endArrow=none;html=1;rounded=0;exitX=0;exitY=0;exitDx=0;exitDy=0;entryX=0;entryY=1;entryDx=0;entryDy=0;" edge="1" parent="1" source="zhJgr4KQXmMTlXa_ivyi-48" target="zhJgr4KQXmMTlXa_ivyi-51">
          <mxGeometry width="50" height="50" relative="1" as="geometry">
            <mxPoint x="723" y="293.06" as="sourcePoint" />
            <mxPoint x="796" y="293.06" as="targetPoint" />
          </mxGeometry>
        </mxCell>
        <mxCell id="zhJgr4KQXmMTlXa_ivyi-56" value="" style="rounded=0;whiteSpace=wrap;html=1;rotation=-90;fillColor=#d0cee2;strokeColor=#56517e;" vertex="1" parent="1">
          <mxGeometry x="767.75" y="237.7" width="92.75" height="15" as="geometry" />
        </mxCell>
        <mxCell id="zhJgr4KQXmMTlXa_ivyi-57" value="" style="endArrow=classic;html=1;rounded=0;exitX=0.5;exitY=1;exitDx=0;exitDy=0;entryX=0.5;entryY=0;entryDx=0;entryDy=0;" edge="1" parent="1" source="zhJgr4KQXmMTlXa_ivyi-56" target="zhJgr4KQXmMTlXa_ivyi-58">
          <mxGeometry width="50" height="50" relative="1" as="geometry">
            <mxPoint x="821.6249999999999" y="245.2" as="sourcePoint" />
            <mxPoint x="848.125" y="247.01999999999998" as="targetPoint" />
          </mxGeometry>
        </mxCell>
        <mxCell id="zhJgr4KQXmMTlXa_ivyi-58" value="" style="rounded=0;whiteSpace=wrap;html=1;rotation=-90;fillColor=#dae8fc;strokeColor=#6c8ebf;" vertex="1" parent="1">
          <mxGeometry x="793.75" y="237.95" width="92.75" height="15" as="geometry" />
        </mxCell>
        <mxCell id="zhJgr4KQXmMTlXa_ivyi-59" value="" style="rounded=0;whiteSpace=wrap;html=1;rotation=-90;fillColor=#fff2cc;strokeColor=#d6b656;" vertex="1" parent="1">
          <mxGeometry x="821.25" y="237.95" width="92.75" height="15" as="geometry" />
        </mxCell>
        <mxCell id="zhJgr4KQXmMTlXa_ivyi-60" value="" style="endArrow=classic;html=1;rounded=0;exitX=0.5;exitY=1;exitDx=0;exitDy=0;entryX=0.5;entryY=0;entryDx=0;entryDy=0;" edge="1" parent="1" source="zhJgr4KQXmMTlXa_ivyi-58">
          <mxGeometry width="50" height="50" relative="1" as="geometry">
            <mxPoint x="848.75" y="244.95" as="sourcePoint" />
            <mxPoint x="859.75" y="245.95" as="targetPoint" />
          </mxGeometry>
        </mxCell>
        <mxCell id="zhJgr4KQXmMTlXa_ivyi-61" value="" style="endArrow=classic;html=1;rounded=0;exitX=0.5;exitY=1;exitDx=0;exitDy=0;entryX=0.5;entryY=0;entryDx=0;entryDy=0;" edge="1" parent="1" target="zhJgr4KQXmMTlXa_ivyi-56">
          <mxGeometry width="50" height="50" relative="1" as="geometry">
            <mxPoint x="793.75" y="244.95" as="sourcePoint" />
            <mxPoint x="836.75" y="245.51" as="targetPoint" />
          </mxGeometry>
        </mxCell>
        <mxCell id="zhJgr4KQXmMTlXa_ivyi-62" value="" style="endArrow=none;html=1;rounded=0;exitX=1;exitY=0;exitDx=0;exitDy=0;entryX=1;entryY=1;entryDx=0;entryDy=0;" edge="1" parent="1" source="zhJgr4KQXmMTlXa_ivyi-56" target="zhJgr4KQXmMTlXa_ivyi-59">
          <mxGeometry width="50" height="50" relative="1" as="geometry">
            <mxPoint x="827.75" y="223.95" as="sourcePoint" />
            <mxPoint x="877.75" y="173.95" as="targetPoint" />
          </mxGeometry>
        </mxCell>
        <mxCell id="zhJgr4KQXmMTlXa_ivyi-63" value="" style="endArrow=none;html=1;rounded=0;exitX=0;exitY=0;exitDx=0;exitDy=0;entryX=0;entryY=1;entryDx=0;entryDy=0;" edge="1" parent="1" source="zhJgr4KQXmMTlXa_ivyi-56" target="zhJgr4KQXmMTlXa_ivyi-59">
          <mxGeometry width="50" height="50" relative="1" as="geometry">
            <mxPoint x="804.75" y="293.95" as="sourcePoint" />
            <mxPoint x="877.75" y="293.95" as="targetPoint" />
          </mxGeometry>
        </mxCell>
        <mxCell id="zhJgr4KQXmMTlXa_ivyi-64" value="" style="rounded=0;whiteSpace=wrap;html=1;rotation=-90;fillColor=#d0cee2;strokeColor=#56517e;" vertex="1" parent="1">
          <mxGeometry x="849" y="238.35999999999999" width="92.75" height="15" as="geometry" />
        </mxCell>
        <mxCell id="zhJgr4KQXmMTlXa_ivyi-65" value="" style="endArrow=classic;html=1;rounded=0;exitX=0.5;exitY=1;exitDx=0;exitDy=0;entryX=0.5;entryY=0;entryDx=0;entryDy=0;" edge="1" parent="1" source="zhJgr4KQXmMTlXa_ivyi-64" target="zhJgr4KQXmMTlXa_ivyi-66">
          <mxGeometry width="50" height="50" relative="1" as="geometry">
            <mxPoint x="902.8749999999999" y="245.85999999999999" as="sourcePoint" />
            <mxPoint x="929.375" y="247.67999999999998" as="targetPoint" />
          </mxGeometry>
        </mxCell>
        <mxCell id="zhJgr4KQXmMTlXa_ivyi-66" value="" style="rounded=0;whiteSpace=wrap;html=1;rotation=-90;fillColor=#dae8fc;strokeColor=#6c8ebf;" vertex="1" parent="1">
          <mxGeometry x="875" y="238.60999999999999" width="92.75" height="15" as="geometry" />
        </mxCell>
        <mxCell id="zhJgr4KQXmMTlXa_ivyi-67" value="" style="rounded=0;whiteSpace=wrap;html=1;rotation=-90;fillColor=#fff2cc;strokeColor=#d6b656;" vertex="1" parent="1">
          <mxGeometry x="902.5" y="238.60999999999999" width="92.75" height="15" as="geometry" />
        </mxCell>
        <mxCell id="zhJgr4KQXmMTlXa_ivyi-68" value="" style="endArrow=classic;html=1;rounded=0;exitX=0.5;exitY=1;exitDx=0;exitDy=0;entryX=0.5;entryY=0;entryDx=0;entryDy=0;" edge="1" parent="1" source="zhJgr4KQXmMTlXa_ivyi-66">
          <mxGeometry width="50" height="50" relative="1" as="geometry">
            <mxPoint x="930" y="245.60999999999999" as="sourcePoint" />
            <mxPoint x="941" y="246.60999999999999" as="targetPoint" />
          </mxGeometry>
        </mxCell>
        <mxCell id="zhJgr4KQXmMTlXa_ivyi-69" value="" style="endArrow=classic;html=1;rounded=0;exitX=0.5;exitY=1;exitDx=0;exitDy=0;entryX=0.5;entryY=0;entryDx=0;entryDy=0;" edge="1" parent="1" target="zhJgr4KQXmMTlXa_ivyi-64">
          <mxGeometry width="50" height="50" relative="1" as="geometry">
            <mxPoint x="875" y="245.60999999999999" as="sourcePoint" />
            <mxPoint x="918" y="246.17" as="targetPoint" />
          </mxGeometry>
        </mxCell>
        <mxCell id="zhJgr4KQXmMTlXa_ivyi-70" value="" style="endArrow=none;html=1;rounded=0;exitX=1;exitY=0;exitDx=0;exitDy=0;entryX=1;entryY=1;entryDx=0;entryDy=0;" edge="1" parent="1" source="zhJgr4KQXmMTlXa_ivyi-64" target="zhJgr4KQXmMTlXa_ivyi-67">
          <mxGeometry width="50" height="50" relative="1" as="geometry">
            <mxPoint x="909" y="224.60999999999999" as="sourcePoint" />
            <mxPoint x="959" y="174.60999999999999" as="targetPoint" />
          </mxGeometry>
        </mxCell>
        <mxCell id="zhJgr4KQXmMTlXa_ivyi-71" value="" style="endArrow=none;html=1;rounded=0;exitX=0;exitY=0;exitDx=0;exitDy=0;entryX=0;entryY=1;entryDx=0;entryDy=0;" edge="1" parent="1" source="zhJgr4KQXmMTlXa_ivyi-64" target="zhJgr4KQXmMTlXa_ivyi-67">
          <mxGeometry width="50" height="50" relative="1" as="geometry">
            <mxPoint x="886" y="294.61" as="sourcePoint" />
            <mxPoint x="959" y="294.61" as="targetPoint" />
          </mxGeometry>
        </mxCell>
        <mxCell id="zhJgr4KQXmMTlXa_ivyi-72" value="Input" style="rounded=0;whiteSpace=wrap;html=1;rotation=-90;fillColor=#bac8d3;strokeColor=#23445d;" vertex="1" parent="1">
          <mxGeometry x="126.25" y="225.81" width="92.75" height="27.5" as="geometry" />
        </mxCell>
        <mxCell id="zhJgr4KQXmMTlXa_ivyi-73" value="" style="endArrow=classic;html=1;rounded=0;exitX=0.5;exitY=1;exitDx=0;exitDy=0;entryX=0.5;entryY=0;entryDx=0;entryDy=0;" edge="1" parent="1" source="zhJgr4KQXmMTlXa_ivyi-38" target="zhJgr4KQXmMTlXa_ivyi-43">
          <mxGeometry width="50" height="50" relative="1" as="geometry">
            <mxPoint x="580" y="270" as="sourcePoint" />
            <mxPoint x="630" y="220" as="targetPoint" />
          </mxGeometry>
        </mxCell>
        <mxCell id="zhJgr4KQXmMTlXa_ivyi-85" value="" style="rounded=0;whiteSpace=wrap;html=1;rotation=-90;fillColor=#d0cee2;strokeColor=#56517e;" vertex="1" parent="1">
          <mxGeometry x="750.75" y="401.88" width="92.75" height="15" as="geometry" />
        </mxCell>
        <mxCell id="zhJgr4KQXmMTlXa_ivyi-86" value="" style="endArrow=classic;html=1;rounded=0;exitX=0.5;exitY=1;exitDx=0;exitDy=0;entryX=0.5;entryY=0;entryDx=0;entryDy=0;" edge="1" parent="1" source="zhJgr4KQXmMTlXa_ivyi-85" target="zhJgr4KQXmMTlXa_ivyi-87">
          <mxGeometry width="50" height="50" relative="1" as="geometry">
            <mxPoint x="804.6249999999999" y="409.38" as="sourcePoint" />
            <mxPoint x="831.125" y="411.20000000000005" as="targetPoint" />
          </mxGeometry>
        </mxCell>
        <mxCell id="zhJgr4KQXmMTlXa_ivyi-87" value="" style="rounded=0;whiteSpace=wrap;html=1;rotation=-90;fillColor=#dae8fc;strokeColor=#6c8ebf;" vertex="1" parent="1">
          <mxGeometry x="776.75" y="402.13" width="92.75" height="15" as="geometry" />
        </mxCell>
        <mxCell id="zhJgr4KQXmMTlXa_ivyi-88" value="" style="rounded=0;whiteSpace=wrap;html=1;rotation=-90;fillColor=#fff2cc;strokeColor=#d6b656;" vertex="1" parent="1">
          <mxGeometry x="804.25" y="402.13" width="92.75" height="15" as="geometry" />
        </mxCell>
        <mxCell id="zhJgr4KQXmMTlXa_ivyi-89" value="" style="endArrow=classic;html=1;rounded=0;exitX=0.5;exitY=1;exitDx=0;exitDy=0;entryX=0.5;entryY=0;entryDx=0;entryDy=0;" edge="1" parent="1" source="zhJgr4KQXmMTlXa_ivyi-87">
          <mxGeometry width="50" height="50" relative="1" as="geometry">
            <mxPoint x="831.75" y="409.13" as="sourcePoint" />
            <mxPoint x="842.75" y="410.13" as="targetPoint" />
          </mxGeometry>
        </mxCell>
        <mxCell id="zhJgr4KQXmMTlXa_ivyi-90" value="" style="endArrow=classic;html=1;rounded=0;exitX=0.5;exitY=1;exitDx=0;exitDy=0;entryX=0.5;entryY=0;entryDx=0;entryDy=0;" edge="1" parent="1" target="zhJgr4KQXmMTlXa_ivyi-85">
          <mxGeometry width="50" height="50" relative="1" as="geometry">
            <mxPoint x="776.75" y="409.13" as="sourcePoint" />
            <mxPoint x="819.75" y="409.69000000000005" as="targetPoint" />
          </mxGeometry>
        </mxCell>
        <mxCell id="zhJgr4KQXmMTlXa_ivyi-91" value="" style="endArrow=none;html=1;rounded=0;exitX=1;exitY=0;exitDx=0;exitDy=0;entryX=1;entryY=1;entryDx=0;entryDy=0;" edge="1" parent="1" source="zhJgr4KQXmMTlXa_ivyi-85" target="zhJgr4KQXmMTlXa_ivyi-88">
          <mxGeometry width="50" height="50" relative="1" as="geometry">
            <mxPoint x="810.75" y="388.13" as="sourcePoint" />
            <mxPoint x="860.75" y="338.13" as="targetPoint" />
          </mxGeometry>
        </mxCell>
        <mxCell id="zhJgr4KQXmMTlXa_ivyi-92" value="" style="endArrow=none;html=1;rounded=0;exitX=0;exitY=0;exitDx=0;exitDy=0;entryX=0;entryY=1;entryDx=0;entryDy=0;" edge="1" parent="1" source="zhJgr4KQXmMTlXa_ivyi-85" target="zhJgr4KQXmMTlXa_ivyi-88">
          <mxGeometry width="50" height="50" relative="1" as="geometry">
            <mxPoint x="787.75" y="458.13" as="sourcePoint" />
            <mxPoint x="860.75" y="458.13" as="targetPoint" />
          </mxGeometry>
        </mxCell>
        <mxCell id="zhJgr4KQXmMTlXa_ivyi-93" value="" style="rounded=0;whiteSpace=wrap;html=1;rotation=-90;fillColor=#d0cee2;strokeColor=#56517e;" vertex="1" parent="1">
          <mxGeometry x="832.5" y="402.77" width="92.75" height="15" as="geometry" />
        </mxCell>
        <mxCell id="zhJgr4KQXmMTlXa_ivyi-94" value="" style="endArrow=classic;html=1;rounded=0;exitX=0.5;exitY=1;exitDx=0;exitDy=0;entryX=0.5;entryY=0;entryDx=0;entryDy=0;" edge="1" parent="1" source="zhJgr4KQXmMTlXa_ivyi-93" target="zhJgr4KQXmMTlXa_ivyi-95">
          <mxGeometry width="50" height="50" relative="1" as="geometry">
            <mxPoint x="886.3749999999999" y="410.27" as="sourcePoint" />
            <mxPoint x="912.875" y="412.09000000000003" as="targetPoint" />
          </mxGeometry>
        </mxCell>
        <mxCell id="zhJgr4KQXmMTlXa_ivyi-95" value="" style="rounded=0;whiteSpace=wrap;html=1;rotation=-90;fillColor=#dae8fc;strokeColor=#6c8ebf;" vertex="1" parent="1">
          <mxGeometry x="858.5" y="403.02" width="92.75" height="15" as="geometry" />
        </mxCell>
        <mxCell id="zhJgr4KQXmMTlXa_ivyi-96" value="" style="rounded=0;whiteSpace=wrap;html=1;rotation=-90;fillColor=#fff2cc;strokeColor=#d6b656;" vertex="1" parent="1">
          <mxGeometry x="886" y="403.02" width="92.75" height="15" as="geometry" />
        </mxCell>
        <mxCell id="zhJgr4KQXmMTlXa_ivyi-97" value="" style="endArrow=classic;html=1;rounded=0;exitX=0.5;exitY=1;exitDx=0;exitDy=0;entryX=0.5;entryY=0;entryDx=0;entryDy=0;" edge="1" parent="1" source="zhJgr4KQXmMTlXa_ivyi-95">
          <mxGeometry width="50" height="50" relative="1" as="geometry">
            <mxPoint x="913.5" y="410.02" as="sourcePoint" />
            <mxPoint x="924.5" y="411.02" as="targetPoint" />
          </mxGeometry>
        </mxCell>
        <mxCell id="zhJgr4KQXmMTlXa_ivyi-98" value="" style="endArrow=classic;html=1;rounded=0;exitX=0.5;exitY=1;exitDx=0;exitDy=0;entryX=0.5;entryY=0;entryDx=0;entryDy=0;" edge="1" parent="1" target="zhJgr4KQXmMTlXa_ivyi-93">
          <mxGeometry width="50" height="50" relative="1" as="geometry">
            <mxPoint x="858.5" y="410.02" as="sourcePoint" />
            <mxPoint x="901.5" y="410.58000000000004" as="targetPoint" />
          </mxGeometry>
        </mxCell>
        <mxCell id="zhJgr4KQXmMTlXa_ivyi-99" value="" style="endArrow=none;html=1;rounded=0;exitX=1;exitY=0;exitDx=0;exitDy=0;entryX=1;entryY=1;entryDx=0;entryDy=0;" edge="1" parent="1" source="zhJgr4KQXmMTlXa_ivyi-93" target="zhJgr4KQXmMTlXa_ivyi-96">
          <mxGeometry width="50" height="50" relative="1" as="geometry">
            <mxPoint x="892.5" y="389.02" as="sourcePoint" />
            <mxPoint x="942.5" y="339.02" as="targetPoint" />
          </mxGeometry>
        </mxCell>
        <mxCell id="zhJgr4KQXmMTlXa_ivyi-100" value="" style="endArrow=none;html=1;rounded=0;exitX=0;exitY=0;exitDx=0;exitDy=0;entryX=0;entryY=1;entryDx=0;entryDy=0;" edge="1" parent="1" source="zhJgr4KQXmMTlXa_ivyi-93" target="zhJgr4KQXmMTlXa_ivyi-96">
          <mxGeometry width="50" height="50" relative="1" as="geometry">
            <mxPoint x="869.5" y="459.02" as="sourcePoint" />
            <mxPoint x="942.5" y="459.02" as="targetPoint" />
          </mxGeometry>
        </mxCell>
        <mxCell id="zhJgr4KQXmMTlXa_ivyi-101" value="" style="endArrow=classic;html=1;rounded=0;exitX=0.5;exitY=1;exitDx=0;exitDy=0;" edge="1" parent="1">
          <mxGeometry width="50" height="50" relative="1" as="geometry">
            <mxPoint x="939.75" y="410.68" as="sourcePoint" />
            <mxPoint x="969.5" y="411.11" as="targetPoint" />
          </mxGeometry>
        </mxCell>
        <mxCell id="zhJgr4KQXmMTlXa_ivyi-102" value="" style="rounded=0;whiteSpace=wrap;html=1;rotation=-90;fillColor=#d0cee2;strokeColor=#56517e;" vertex="1" parent="1">
          <mxGeometry x="583.75" y="402.6" width="92.75" height="15" as="geometry" />
        </mxCell>
        <mxCell id="zhJgr4KQXmMTlXa_ivyi-103" value="" style="endArrow=classic;html=1;rounded=0;exitX=0.5;exitY=1;exitDx=0;exitDy=0;entryX=0.5;entryY=0;entryDx=0;entryDy=0;" edge="1" parent="1" source="zhJgr4KQXmMTlXa_ivyi-102" target="zhJgr4KQXmMTlXa_ivyi-104">
          <mxGeometry width="50" height="50" relative="1" as="geometry">
            <mxPoint x="637.6249999999999" y="410.1" as="sourcePoint" />
            <mxPoint x="664.125" y="411.9200000000001" as="targetPoint" />
          </mxGeometry>
        </mxCell>
        <mxCell id="zhJgr4KQXmMTlXa_ivyi-104" value="" style="rounded=0;whiteSpace=wrap;html=1;rotation=-90;fillColor=#dae8fc;strokeColor=#6c8ebf;" vertex="1" parent="1">
          <mxGeometry x="609.75" y="402.85" width="92.75" height="15" as="geometry" />
        </mxCell>
        <mxCell id="zhJgr4KQXmMTlXa_ivyi-105" value="" style="rounded=0;whiteSpace=wrap;html=1;rotation=-90;fillColor=#fff2cc;strokeColor=#d6b656;" vertex="1" parent="1">
          <mxGeometry x="637.25" y="402.85" width="92.75" height="15" as="geometry" />
        </mxCell>
        <mxCell id="zhJgr4KQXmMTlXa_ivyi-106" value="" style="endArrow=classic;html=1;rounded=0;exitX=0.5;exitY=1;exitDx=0;exitDy=0;entryX=0.5;entryY=0;entryDx=0;entryDy=0;" edge="1" parent="1" source="zhJgr4KQXmMTlXa_ivyi-104">
          <mxGeometry width="50" height="50" relative="1" as="geometry">
            <mxPoint x="664.75" y="409.85" as="sourcePoint" />
            <mxPoint x="675.75" y="410.85" as="targetPoint" />
          </mxGeometry>
        </mxCell>
        <mxCell id="zhJgr4KQXmMTlXa_ivyi-107" value="" style="endArrow=classic;html=1;rounded=0;exitX=0.5;exitY=1;exitDx=0;exitDy=0;entryX=0.5;entryY=0;entryDx=0;entryDy=0;" edge="1" parent="1" target="zhJgr4KQXmMTlXa_ivyi-102">
          <mxGeometry width="50" height="50" relative="1" as="geometry">
            <mxPoint x="609.75" y="409.85" as="sourcePoint" />
            <mxPoint x="652.75" y="410.4100000000001" as="targetPoint" />
          </mxGeometry>
        </mxCell>
        <mxCell id="zhJgr4KQXmMTlXa_ivyi-108" value="" style="endArrow=none;html=1;rounded=0;exitX=1;exitY=0;exitDx=0;exitDy=0;entryX=1;entryY=1;entryDx=0;entryDy=0;" edge="1" parent="1" source="zhJgr4KQXmMTlXa_ivyi-102" target="zhJgr4KQXmMTlXa_ivyi-105">
          <mxGeometry width="50" height="50" relative="1" as="geometry">
            <mxPoint x="643.75" y="388.85" as="sourcePoint" />
            <mxPoint x="693.75" y="338.84999999999997" as="targetPoint" />
          </mxGeometry>
        </mxCell>
        <mxCell id="zhJgr4KQXmMTlXa_ivyi-109" value="" style="endArrow=none;html=1;rounded=0;exitX=0;exitY=0;exitDx=0;exitDy=0;entryX=0;entryY=1;entryDx=0;entryDy=0;" edge="1" parent="1" source="zhJgr4KQXmMTlXa_ivyi-102" target="zhJgr4KQXmMTlXa_ivyi-105">
          <mxGeometry width="50" height="50" relative="1" as="geometry">
            <mxPoint x="620.75" y="458.85" as="sourcePoint" />
            <mxPoint x="693.75" y="458.85" as="targetPoint" />
          </mxGeometry>
        </mxCell>
        <mxCell id="zhJgr4KQXmMTlXa_ivyi-110" value="" style="endArrow=classic;html=1;rounded=0;exitX=0.5;exitY=1;exitDx=0;exitDy=0;entryX=0.5;entryY=0;entryDx=0;entryDy=0;" edge="1" parent="1">
          <mxGeometry width="50" height="50" relative="1" as="geometry">
            <mxPoint x="691.5" y="410.74" as="sourcePoint" />
            <mxPoint x="704.5" y="410.83000000000004" as="targetPoint" />
          </mxGeometry>
        </mxCell>
        <mxCell id="zhJgr4KQXmMTlXa_ivyi-112" value="c64k4s2" style="text;html=1;align=center;verticalAlign=middle;resizable=0;points=[];autosize=1;strokeColor=none;fillColor=none;" vertex="1" parent="1">
          <mxGeometry x="181" y="287" width="70" height="30" as="geometry" />
        </mxCell>
        <mxCell id="zhJgr4KQXmMTlXa_ivyi-113" value="c128k4s2" style="text;html=1;align=center;verticalAlign=middle;resizable=0;points=[];autosize=1;strokeColor=none;fillColor=none;" vertex="1" parent="1">
          <mxGeometry x="311.38" y="287" width="70" height="30" as="geometry" />
        </mxCell>
        <mxCell id="zhJgr4KQXmMTlXa_ivyi-114" value="c256k4s2" style="text;html=1;align=center;verticalAlign=middle;resizable=0;points=[];autosize=1;strokeColor=none;fillColor=none;" vertex="1" parent="1">
          <mxGeometry x="393.12" y="287" width="70" height="30" as="geometry" />
        </mxCell>
        <mxCell id="zhJgr4KQXmMTlXa_ivyi-115" value="c512k4s2" style="text;html=1;align=center;verticalAlign=middle;resizable=0;points=[];autosize=1;strokeColor=none;fillColor=none;" vertex="1" parent="1">
          <mxGeometry x="474.5" y="287" width="70" height="30" as="geometry" />
        </mxCell>
        <mxCell id="zhJgr4KQXmMTlXa_ivyi-116" value="c512k4s2" style="text;html=1;align=center;verticalAlign=middle;resizable=0;points=[];autosize=1;strokeColor=none;fillColor=none;" vertex="1" parent="1">
          <mxGeometry x="567.38" y="287" width="70" height="30" as="geometry" />
        </mxCell>
        <mxCell id="zhJgr4KQXmMTlXa_ivyi-117" value="c256k4s2" style="text;html=1;align=center;verticalAlign=middle;resizable=0;points=[];autosize=1;strokeColor=none;fillColor=none;" vertex="1" parent="1">
          <mxGeometry x="700" y="287" width="70" height="30" as="geometry" />
        </mxCell>
        <mxCell id="zhJgr4KQXmMTlXa_ivyi-118" value="c128k4s2" style="text;html=1;align=center;verticalAlign=middle;resizable=0;points=[];autosize=1;strokeColor=none;fillColor=none;" vertex="1" parent="1">
          <mxGeometry x="779.5" y="287" width="70" height="30" as="geometry" />
        </mxCell>
        <mxCell id="zhJgr4KQXmMTlXa_ivyi-119" value="c64k4s2" style="text;html=1;align=center;verticalAlign=middle;resizable=0;points=[];autosize=1;strokeColor=none;fillColor=none;" vertex="1" parent="1">
          <mxGeometry x="860.38" y="287" width="70" height="30" as="geometry" />
        </mxCell>
        <mxCell id="zhJgr4KQXmMTlXa_ivyi-120" value="c3k4s1" style="text;html=1;align=center;verticalAlign=middle;resizable=0;points=[];autosize=1;strokeColor=none;fillColor=none;" vertex="1" parent="1">
          <mxGeometry x="1026.38" y="287" width="60" height="30" as="geometry" />
        </mxCell>
        <mxCell id="zhJgr4KQXmMTlXa_ivyi-121" value="Conv2dT" style="rounded=0;whiteSpace=wrap;html=1;rotation=-90;fillColor=#d0cee2;strokeColor=#56517e;" vertex="1" parent="1">
          <mxGeometry x="1003.5" y="232.10999999999999" width="92.75" height="27.5" as="geometry" />
        </mxCell>
        <mxCell id="zhJgr4KQXmMTlXa_ivyi-122" value="Output" style="rounded=0;whiteSpace=wrap;html=1;rotation=-90;fillColor=#bac8d3;strokeColor=#23445d;" vertex="1" parent="1">
          <mxGeometry x="1087.25" y="231.45" width="92.75" height="27.5" as="geometry" />
        </mxCell>
        <mxCell id="zhJgr4KQXmMTlXa_ivyi-125" value="c32k4s2" style="text;html=1;align=center;verticalAlign=middle;resizable=0;points=[];autosize=1;strokeColor=none;fillColor=none;" vertex="1" parent="1">
          <mxGeometry x="595.13" y="460" width="70" height="30" as="geometry" />
        </mxCell>
        <mxCell id="zhJgr4KQXmMTlXa_ivyi-126" value="c32k4s2" style="text;html=1;align=center;verticalAlign=middle;resizable=0;points=[];autosize=1;strokeColor=none;fillColor=none;" vertex="1" parent="1">
          <mxGeometry x="762.5" y="460" width="70" height="30" as="geometry" />
        </mxCell>
        <mxCell id="zhJgr4KQXmMTlXa_ivyi-127" value="c16k4s2" style="text;html=1;align=center;verticalAlign=middle;resizable=0;points=[];autosize=1;strokeColor=none;fillColor=none;" vertex="1" parent="1">
          <mxGeometry x="843.5" y="460" width="70" height="30" as="geometry" />
        </mxCell>
        <mxCell id="zhJgr4KQXmMTlXa_ivyi-128" value="sigmoid" style="rounded=0;whiteSpace=wrap;html=1;rotation=-90;fillColor=#dae8fc;strokeColor=#6c8ebf;" vertex="1" parent="1">
          <mxGeometry x="1046.5" y="232.11" width="92.75" height="27.5" as="geometry" />
        </mxCell>
        <mxCell id="zhJgr4KQXmMTlXa_ivyi-129" value="" style="endArrow=classic;html=1;rounded=0;exitX=0.5;exitY=1;exitDx=0;exitDy=0;entryX=0.5;entryY=0;entryDx=0;entryDy=0;" edge="1" parent="1" source="zhJgr4KQXmMTlXa_ivyi-121" target="zhJgr4KQXmMTlXa_ivyi-128">
          <mxGeometry width="50" height="50" relative="1" as="geometry">
            <mxPoint x="1030" y="140" as="sourcePoint" />
            <mxPoint x="1080" y="90" as="targetPoint" />
          </mxGeometry>
        </mxCell>
        <mxCell id="zhJgr4KQXmMTlXa_ivyi-130" value="" style="endArrow=classic;html=1;rounded=0;exitX=0.5;exitY=1;exitDx=0;exitDy=0;entryX=0.5;entryY=0;entryDx=0;entryDy=0;" edge="1" parent="1" source="zhJgr4KQXmMTlXa_ivyi-128" target="zhJgr4KQXmMTlXa_ivyi-122">
          <mxGeometry width="50" height="50" relative="1" as="geometry">
            <mxPoint x="990" y="150" as="sourcePoint" />
            <mxPoint x="1040" y="100" as="targetPoint" />
          </mxGeometry>
        </mxCell>
      </root>
    </mxGraphModel>
  </diagram>
</mxfile>
